<svg width="141" height="37" fill="none" xmlns="http://www.w3.org/2000/svg"><path d="m60.414 24.966-1.508 4.61a.341.341 0 0 1-.345.25h-3.66c-.219.001-.284-.124-.25-.305l6.287-17.992c.21-.613.314-1.255.309-1.902a.207.207 0 0 1 .188-.217h5.029c.157 0 .219.03.253.186l7.135 19.95c.062.156.03.281-.157.281h-4.08a.31.31 0 0 1-.348-.217l-1.603-4.644h-7.25Zm6.1-3.898c-.617-2.058-1.888-5.828-2.483-8.041h-.03c-.506 2.088-1.638 5.503-2.467 8.04h4.98ZM74.355 22.22c0-4.457 3.364-8.196 9.117-8.196.25 0 .565.03 1.037.06V7.946a.193.193 0 0 1 .056-.16.197.197 0 0 1 .162-.057h3.963c.157 0 .188.062.188.187v18.42c-.009.761.034 1.52.126 2.275 0 .157-.03.22-.219.282a15.905 15.905 0 0 1-6.195 1.247c-4.653 0-8.236-2.617-8.236-7.918Zm10.153-4.424a3.275 3.275 0 0 0-1.162-.155c-2.42 0-4.496 1.464-4.496 4.362 0 3.085 1.792 4.427 4.181 4.427.5.021 1-.042 1.477-.186v-8.448ZM106.882 22.003c0 4.892-3.207 8.136-7.733 8.136-5.378 0-7.764-4.02-7.764-8.04 0-4.428 2.984-8.076 7.825-8.076 5.064 0 7.672 3.773 7.672 7.98Zm-11.067.03c0 2.753 1.29 4.49 3.392 4.49 1.826 0 3.207-1.557 3.207-4.425 0-2.446-1.005-4.458-3.392-4.458-1.822 0-3.207 1.62-3.207 4.394ZM113.49 7.728c.25 0 .308.03.308.248v6.39a10.241 10.241 0 0 1 2.64-.342c4.625 0 7.545 3.24 7.545 7.417 0 5.83-4.653 8.698-9.429 8.698a16.512 16.512 0 0 1-4.934-.718.366.366 0 0 1-.188-.306V7.945c0-.156.062-.217.219-.217h3.839Zm2.158 9.973a6.373 6.373 0 0 0-1.85.251v8.463c.382.086.772.127 1.163.123 2.389 0 4.557-1.434 4.557-4.675.006-2.853-1.659-4.162-3.86-4.162h-.01ZM130.134 23.22c.158 1.777 1.416 3.241 4.496 3.241a9.76 9.76 0 0 0 3.867-.718c.095-.061.188-.03.188.156v2.962c0 .217-.062.306-.219.373-1.258.594-2.639.917-4.81.917-5.911 0-7.983-4.02-7.983-7.885 0-4.301 2.67-8.23 7.607-8.23 4.745 0 6.632 3.647 6.632 6.726.022.7-.03 1.4-.157 2.088a.27.27 0 0 1-.253.25c-1.076.102-2.157.144-3.238.127l-6.13-.007Zm4.089-3.023c.524.019 1.049-.003 1.57-.065v-.217a2.533 2.533 0 0 0-1.674-2.311 2.573 2.573 0 0 0-.997-.153c-1.979 0-2.83 1.468-3.018 2.752l4.119-.006ZM25.941.889h15.21V37L25.942.889ZM15.223.889H0V37L15.223.889ZM20.582 14.198 30.273 37h-6.351l-2.899-7.261h-7.092l6.651-15.541Z" fill="#A0A0A0"/></svg>