<svg width="146" height="37" fill="none" xmlns="http://www.w3.org/2000/svg"><path d="M25.988 23.563c-.866 2.8-3.465 5.319-8.085 5.319-5.198 0-9.53-4.199-9.53-10.078 0-5.878 4.332-10.077 9.53-10.077 4.33 0 6.93 2.52 7.796 5.319l8.662-.56C32.63 6.767 26.566.889 17.904.889 8.085.889 0 8.727 0 18.805 0 28.882 8.085 36.72 17.903 36.72c8.95 0 15.015-5.878 16.747-12.597l-8.662-.56ZM36.381 23.563C36.381 31.121 42.445 37 49.953 37c7.507 0 13.57-5.879 13.57-13.437s-6.063-13.436-13.57-13.436c-7.508 0-13.572 5.878-13.572 13.436Zm19.346 0c0 3.92-2.598 6.439-5.774 6.439-3.177 0-5.775-2.52-5.775-6.439s2.598-6.438 5.775-6.438c3.176 0 5.774 2.52 5.774 6.438ZM42.445 7.327h15.304V1.45H42.445v5.878ZM65.969 36.44H90.8v-7.838H74.342V1.17H65.97V36.44ZM110.436 36.44h5.776V20.764c0-6.158-4.62-10.637-10.974-10.637-6.93 0-10.683 3.639-11.55 8.678l7.797.56s.578-2.52 3.465-2.52c2.021 0 3.465 1.4 3.465 3.92-12.128 0-15.881 3.638-15.881 8.677 0 4.199 3.176 7.278 8.951 7.278 4.62 0 7.796-2.8 7.796-2.8l1.155 2.52Zm-2.021-10.077c0 2.799-2.021 4.759-4.909 4.759-2.021 0-3.176-1.12-3.176-2.52 0-1.96 1.444-3.359 8.085-3.359v1.12ZM119.035 36.44h5.775l1.155-2.52s2.888 2.8 7.508 2.8c6.641 0 12.416-5.598 12.416-13.156 0-7.559-5.775-13.157-12.416-13.157-4.043 0-6.642 2.24-6.642 2.24V1.168h-7.796V36.44Zm13.282-6.718c-3.176 0-5.775-2.52-5.775-6.159s2.599-6.158 5.775-6.158c3.177 0 5.776 2.52 5.776 6.159s-2.599 6.158-5.776 6.158Z" fill="#A0A0A0"/></svg>