<svg width="301" height="37" fill="none" xmlns="http://www.w3.org/2000/svg"><path d="M29.65 21.238H0v14.689h29.65V21.238ZM29.65 1.956H0V16.34h29.65V1.956ZM59.298 35.927V21.239H41.55v14.688H35.6V1.957h5.95v14.381h17.748V1.957h5.952v33.971h-5.952ZM85.569 37c-9.987 0-15.62-6.732-15.62-14.382v-7.396c0-7.702 5.64-14.333 15.62-14.333s15.62 6.63 15.62 14.333v7.396c0 7.65-5.64 14.382-15.62 14.382Zm9.624-21.827c0-5.049-3.31-9.181-9.624-9.181s-9.624 4.132-9.624 9.18v7.498c-.064 1.251.144 2.501.608 3.667a8.807 8.807 0 0 0 2.087 3.093c.91.874 2 1.546 3.194 1.972a9.06 9.06 0 0 0 3.735.5 9.061 9.061 0 0 0 3.734-.5 8.965 8.965 0 0 0 3.195-1.972 8.81 8.81 0 0 0 2.086-3.093 8.706 8.706 0 0 0 .61-3.667v-7.497ZM105.884 35.927V1.957h5.949v28.869h19.922v5.1l-25.871.001ZM143.756 7.058v28.869h-5.949V7.057h-11.746V1.959h29.441v5.1h-11.746ZM166.677 30.827h19.973v5.1h-28.925v-2.04l20.439-26.83h-19.455V1.959h28.303v2.04l-20.335 26.83ZM224.993 35.927V9.557l-1.708 4.335-9.932 22.035h-4.291l-9.837-22.042-1.708-4.335v26.37h-5.589V1.956h8.279l9.572 22.335 1.604 4.183 1.603-4.132 9.464-22.386h8.24v33.97l-5.697.001ZM261.318 35.927l-3.363-8.568h-14.539l-3.261 8.568h-6.104l13.867-33.969h5.587l14.076 33.969h-6.263Zm-10.762-26.98-5.381 13.821h10.918l-5.537-13.822ZM295.677 35.927l-16.136-20.198-2.855-3.874v24.074h-5.795V1.956h5.23l15.679 20.35 2.793 3.826V1.956h5.795v33.97l-4.711.001Z" fill="#A0A0A0"/></svg>