<svg width="234" height="37" fill="none" xmlns="http://www.w3.org/2000/svg"><path fill-rule="evenodd" clip-rule="evenodd" d="M95.654 32.409v-12.53c0-3.374-1.968-6.194-5.387-6.194-3.42 0-5.574 2.82-5.574 6.195v12.529h-4.825V9.569h4.497l.328 3.052c1.311-2.497 4.028-3.42 6.464-3.42 2.951 0 5.949 1.2 7.26 4.576 1.874-3.375 4.778-4.53 7.916-4.53 6.371 0 9.791 3.975 9.791 10.54V32.41h-4.872V19.787c0-3.375-1.686-6.056-5.106-6.056-3.419 0-5.621 2.774-5.621 6.149v12.529h-4.871ZM125.728 21.036c0 4.069 2.67 7.398 7.072 7.398 4.451 0 7.121-3.33 7.121-7.398 0-4.022-2.904-7.49-7.121-7.49-4.402 0-7.072 3.468-7.072 7.49Zm19.064 0c0 6.75-4.73 11.836-11.992 11.836-7.213 0-11.897-5.086-11.897-11.836 0-6.703 4.732-11.882 11.897-11.882 7.121 0 11.992 5.179 11.992 11.882ZM164.655 15.211c-1.827-1.665-3.794-2.127-6.089-2.127-2.951-.046-4.918.925-4.918 2.728.047 1.896 2.061 2.636 5.012 2.913 4.262.37 9.836 1.294 9.79 7.166-.047 4.253-3.842 7.212-9.837 7.212-3.747 0-7.495-.832-10.54-4.207l2.529-3.375c2.156 2.358 5.388 3.33 8.104 3.375 2.296 0 4.872-.832 4.919-2.959.047-2.034-1.92-2.82-5.34-3.143-4.356-.417-9.368-1.804-9.415-6.843 0-5.04 5.293-6.935 9.602-6.935 3.56 0 6.324.786 8.9 3.051l-2.717 3.144ZM176.695 20.99c0 4.716 3.373 7.583 7.495 7.583 9.977 0 9.977-15.119 0-15.119-4.122 0-7.495 2.867-7.495 7.536Zm15.13-11.373h4.684V32.41h-4.59l-.235-3.699c-1.545 2.913-5.106 4.3-7.963 4.3-6.745.046-11.85-4.254-11.85-12.02 0-7.629 5.293-11.883 11.944-11.883 3.279 0 6.417 1.526 7.869 4.115l.141-3.606ZM203.068 32.41h4.825V9.524h-4.825V32.41Zm5.434-29.497c0 3.93-5.996 3.93-5.996 0 0-3.884 5.996-3.884 5.996 0ZM233.984 29.45c-2.576 2.498-5.434 3.561-8.76 3.561-6.651 0-12.179-4.115-12.179-11.974 0-7.86 5.481-11.975 12.179-11.975 3.186 0 5.856.971 8.338 3.375l-3.091 3.19c-1.452-1.387-3.373-2.034-5.2-2.034-4.168 0-7.401 2.913-7.401 7.444 0 4.808 3.373 7.35 7.354 7.35 1.968 0 3.982-.6 5.481-2.126l3.279 3.19ZM9.06 35.8.248 27.1a.822.822 0 0 1 0-1.174l8.814-8.7c.42-.414 1.1-.414 1.52 0l8.649 8.537c.42.414.42 1.086 0 1.5L10.58 35.8c-.419.415-1.1.415-1.52 0ZM21.318 23.703l-8.649-8.537a1.051 1.051 0 0 1 0-1.5l8.65-8.537c.419-.414 1.1-.414 1.52 0l8.648 8.537c.42.414.42 1.086 0 1.5l-8.649 8.537c-.42.415-1.1.415-1.52 0ZM33.719 35.662l-8.65-8.536a1.051 1.051 0 0 1 0-1.5l8.65-8.538c.42-.414 1.1-.414 1.52 0l8.65 8.537c.419.415.419 1.086 0 1.5l-8.65 8.537c-.42.415-1.1.415-1.52 0ZM45.978 23.564l-8.649-8.537a1.051 1.051 0 0 1 0-1.5l8.65-8.537c.42-.415 1.1-.415 1.52 0l8.649 8.537c.42.414.42 1.086 0 1.5l-8.65 8.537c-.42.414-1.1.414-1.52 0ZM58.203 35.697l-8.65-8.537a1.051 1.051 0 0 1 0-1.5l8.65-8.538c.42-.414 1.1-.414 1.52 0l8.649 8.537c.42.415.42 1.086 0 1.5l-8.65 8.538c-.419.414-1.1.414-1.52 0Z" fill="#A0A0A0"/></svg>