<svg width="77" height="18" fill="none" xmlns="http://www.w3.org/2000/svg"><path d="M5.56 17.34c-2.013 0-3.807-.373-5.38-1.12V13.7c1.613.84 3.407 1.26 5.38 1.26.947 0 1.64-.18 2.08-.54.44-.36.667-.84.68-1.44 0-.587-.207-1.027-.62-1.32-.4-.293-1.04-.56-1.92-.8l-1.36-.38a10.68 10.68 0 0 1-2.02-.76A4.001 4.001 0 0 1 .96 8.4C.573 7.813.38 7.06.38 6.14c0-1.493.447-2.627 1.34-3.4.893-.787 2.153-1.18 3.78-1.18.973 0 1.827.093 2.56.28.747.173 1.507.44 2.28.8v2.44C8.887 4.32 7.273 3.94 5.5 3.94c-1.573 0-2.36.66-2.36 1.98.013.587.193 1.02.54 1.3.36.28.973.533 1.84.76l1.38.38c.84.227 1.553.5 2.14.82a4.01 4.01 0 0 1 1.46 1.38c.387.587.58 1.353.58 2.3-.013 1.387-.513 2.48-1.5 3.28-.973.8-2.313 1.2-4.02 1.2ZM13.744.86h2.68v3.02h-2.68V.86Zm0 4.96h2.68V17h-2.68V5.82Zm9.04 11.44c-1.094 0-1.894-.227-2.4-.68-.507-.467-.76-1.18-.76-2.14V.08h2.68v13.48c0 .48.08.813.24 1 .16.187.446.28.86.28.413 0 .78-.04 1.1-.12v2.32c-.627.147-1.2.22-1.72.22ZM26.595.86h2.68v3.02h-2.68V.86Zm0 4.96h2.68V17h-2.68V5.82Zm9.619 6.74-1.06 1.1V17h-2.68V.08h2.68v10.24l4.04-4.24h3.24l-4.44 4.64 4.96 6.28h-3.24l-3.5-4.44Zm12.562-6.74c1.32 0 2.32.2 3 .6.694.387 1.154.913 1.38 1.58.227.653.34 1.48.34 2.48V17h-2.68v-1.02c-.493.453-.98.78-1.46.98-.466.2-.98.3-1.54.3-1.173 0-2.12-.333-2.84-1-.706-.68-1.06-1.607-1.06-2.78 0-1.2.367-2.127 1.1-2.78.747-.667 1.767-1 3.06-1 1.054 0 1.967.207 2.74.62-.013-.507-.08-.913-.2-1.22-.106-.307-.326-.54-.66-.7-.333-.173-.826-.26-1.48-.26h-1.88V5.82h2.18Zm-.48 9.3c.814 0 1.654-.373 2.52-1.12v-1.76a4.749 4.749 0 0 0-2.18-.54c-.586 0-1.066.14-1.44.42-.373.267-.56.707-.56 1.32 0 .6.154 1.033.46 1.3.32.253.72.38 1.2.38Zm7.904-1.54h2.88V17H56.2v-3.42Zm9.783-7.76c1.32 0 2.32.2 3 .6.694.387 1.154.913 1.38 1.58.227.653.34 1.48.34 2.48V17h-2.68v-1.02c-.493.453-.98.78-1.46.98-.466.2-.98.3-1.54.3-1.173 0-2.12-.333-2.84-1-.706-.68-1.06-1.607-1.06-2.78 0-1.2.367-2.127 1.1-2.78.747-.667 1.767-1 3.06-1 1.054 0 1.967.207 2.74.62-.013-.507-.08-.913-.2-1.22-.106-.307-.326-.54-.66-.7-.333-.173-.826-.26-1.48-.26h-1.88V5.82h2.18Zm-.48 9.3c.814 0 1.654-.373 2.52-1.12v-1.76a4.75 4.75 0 0 0-2.18-.54c-.586 0-1.066.14-1.44.42-.373.267-.56.707-.56 1.32 0 .6.154 1.033.46 1.3.32.253.72.38 1.2.38ZM73.608.86h2.68v3.02h-2.68V.86Zm0 4.96h2.68V17h-2.68V5.82Z" fill="#fff"/></svg>