<svg width="15" height="15" fill="none" xmlns="http://www.w3.org/2000/svg"><path d="M13.628 6.276h-.503V6.25H7.5v2.5h3.532A3.748 3.748 0 0 1 3.75 7.5 3.75 3.75 0 0 1 7.5 3.75c.956 0 1.826.36 2.488.95l1.768-1.768A6.221 6.221 0 0 0 7.5 1.25a6.25 6.25 0 1 0 6.128 5.026Z" fill="#FFC107"/><path d="m1.97 4.59 2.054 1.507A3.748 3.748 0 0 1 7.5 3.75c.956 0 1.826.36 2.488.95l1.768-1.768A6.221 6.221 0 0 0 7.5 1.25a6.246 6.246 0 0 0-5.53 3.34Z" fill="#FF3D00"/><path d="M7.5 13.75a6.22 6.22 0 0 0 4.19-1.623l-1.934-1.636a3.722 3.722 0 0 1-2.256.759 3.748 3.748 0 0 1-3.526-2.483l-2.038 1.57A6.245 6.245 0 0 0 7.5 13.75Z" fill="#4CAF50"/><path d="M13.628 6.276h-.503V6.25H7.5v2.5h3.532a3.762 3.762 0 0 1-1.277 1.74l1.935 1.637c-.137.125 2.06-1.502 2.06-4.627 0-.42-.043-.828-.122-1.224Z" fill="#1976D2"/></svg>