<svg width="46" height="46" fill="none" xmlns="http://www.w3.org/2000/svg"><path d="M23 29a6 6 0 1 0 0-12 6 6 0 0 0 0 12v0Z" stroke="#160647" stroke-width="1.5" stroke-miterlimit="1.5" stroke-linecap="round" stroke-linejoin="round"/><path d="M23 17s-3.976-3.95-4-8c.002-3.986-.1-8.002 4-8 3.896.002 3.994 3.952 4 8 .006 3.97-4 8-4 8Zm6 6s3.95-3.976 8-4c3.986.002 8.002-.1 8 4-.002 3.896-3.952 3.994-8 4-3.97.006-8-4-8-4Zm-12 0s-3.95 3.976-8 4c-3.986-.002-8.002.1-8-4 .002-3.896 3.952-3.994 8-4 3.97-.006 8 4 8 4Zm6 6s3.976 3.95 4 8c-.002 3.986.1 8.002-4 8-3.896-.002-3.994-3.952-4-8-.006-3.97 4-8 4-8Z" stroke="#160647" stroke-width="1.5" stroke-miterlimit="1.5" stroke-linecap="round" stroke-linejoin="round"/></svg>