<svg width="68" height="68" fill="none" xmlns="http://www.w3.org/2000/svg"><mask id="a" style="mask-type:alpha" maskUnits="userSpaceOnUse" x="0" y="0" width="68" height="68"><path d="m67.882 33.941-33.94 33.941L0 33.942 33.941 0l33.941 33.941Z" fill="#fff"/></mask><g mask="url(#a)" stroke="#160647" stroke-width="1.5" stroke-linecap="round" stroke-linejoin="round"><path d="M34.085 9.467v18m-7.331 15.336-5.388-10.777a1.2 1.2 0 0 1 .017-1.108L32.989 9.494a1.2 1.2 0 0 1 2.129.035L45.84 30.977a1.2 1.2 0 0 1 .036.997l-4.482 10.755a1.2 1.2 0 0 1-1.107.74l-12.458-.002a1.2 1.2 0 0 1-1.075-.664v0Z"/><path d="m27.085 43.467.001 8a4 4 0 0 0 4 4l5.999.003a4 4 0 0 0 4-4.001v-8m-6.998-10.002a3 3 0 1 0-.002-5.999 3 3 0 0 0 .002 6Z"/></g></svg>