<svg width="48" height="48" fill="none" xmlns="http://www.w3.org/2000/svg"><path d="M20 40c0 4 4 6 4 6s4-2 4-6M17 25c-7 5-3 13-3 13l6-4m11.862-9c7 5 3 13 3 13l-6-4m3.26-13.192L28 34h-8l-4.122-13.192A12.001 12.001 0 0 1 17.874 9.84l5.18-6.63a1.2 1.2 0 0 1 1.892 0l5.18 6.63a12.002 12.002 0 0 1 1.996 10.968v0Z" stroke="#160647" stroke-width="1.5" stroke-linecap="round" stroke-linejoin="round"/><path d="M24 22a4 4 0 1 1 0-8 4 4 0 0 1 0 8Z" stroke="#160647" stroke-width="1.5" stroke-linecap="round" stroke-linejoin="round"/></svg>