<svg width="104" height="35" fill="none" xmlns="http://www.w3.org/2000/svg"><path d="M9.84 34.68c-1.733 0-3.28-.147-4.64-.44-1.36-.293-2.773-.787-4.24-1.48v-4.92c1.413.8 2.84 1.387 4.28 1.76 1.467.347 3 .52 4.6.52 2.267 0 3.4-.813 3.4-2.44 0-.693-.2-1.2-.6-1.52-.373-.347-.973-.627-1.8-.84l-3.28-.72c-2.053-.453-3.613-1.187-4.68-2.2-1.04-1.04-1.56-2.52-1.56-4.44C1.32 13.32 4.213 11 10 11c2.533 0 5.08.48 7.64 1.44v4.72c-.987-.48-2.12-.867-3.4-1.16a17.856 17.856 0 0 0-4-.44c-2.32 0-3.48.693-3.48 2.08 0 .64.187 1.107.56 1.4.4.293.987.533 1.76.72l3.24.72c2.16.507 3.76 1.267 4.8 2.28s1.56 2.573 1.56 4.68c0 2.373-.8 4.173-2.4 5.4-1.6 1.227-3.747 1.84-6.44 1.84ZM23.762 1.72h5.36v6.04h-5.36V1.72Zm0 9.92h5.36V34h-5.36V11.64ZM41.84 34.52c-2.186 0-3.786-.453-4.8-1.36-1.013-.933-1.52-2.36-1.52-4.28V.16h5.36v26.96c0 .96.16 1.627.48 2 .32.373.894.56 1.72.56.827 0 1.56-.08 2.2-.24v4.64c-1.253.293-2.4.44-3.44.44Zm7.626-32.8h5.36v6.04h-5.36V1.72Zm0 9.92h5.36V34h-5.36V11.64Zm19.237 13.48-2.12 2.2V34h-5.36V.16h5.36v20.48l8.08-8.48h6.48l-8.88 9.28L82.183 34h-6.48l-7-8.88Zm25.125-13.48c2.64 0 4.64.4 6 1.2 1.387.773 2.307 1.827 2.76 3.16.453 1.307.68 2.96.68 4.96V34h-5.36v-2.04c-.987.907-1.96 1.56-2.92 1.96-.933.4-1.96.6-3.08.6-2.347 0-4.24-.667-5.68-2-1.413-1.36-2.12-3.213-2.12-5.56 0-2.4.733-4.253 2.2-5.56 1.493-1.333 3.533-2 6.12-2 2.107 0 3.934.413 5.48 1.24-.026-1.013-.16-1.827-.4-2.44-.213-.613-.653-1.08-1.32-1.4-.666-.347-1.653-.52-2.96-.52h-3.76v-4.64h4.36Zm-.96 18.6c1.627 0 3.307-.747 5.04-2.24v-3.52c-1.413-.72-2.867-1.08-4.36-1.08-1.173 0-2.133.28-2.88.84-.747.533-1.12 1.413-1.12 2.64 0 1.2.307 2.067.92 2.6.64.507 1.44.76 2.4.76Z" fill="#160647"/></svg>